<?xml version="1.0" encoding="UTF-8" standalone="no"?><svg xmlns="http://www.w3.org/2000/svg" xmlns:xlink="http://www.w3.org/1999/xlink" contentScriptType="text/ecmascript" fill="#000000" width="224.9" zoomAndPan="magnify" contentStyleType="text/css" viewBox="100.2 96.7 224.9 231.8" height="231.8" preserveAspectRatio="xMidYMid meet" version="1.1">
 <g id="surface1">
  <g id="change1_1"><path fill="#ffffff" d="m102.66 120.89v180.27h172.82v-201.94l-146.44-0.005-26.38 21.675"/></g>
  <g id="change2_1"><path fill="#001738" d="m102.66 120.89h-2.5v180.27c0 0.66 0.27 1.3 0.73 1.77 0.47 0.46 1.11 0.73 1.77 0.73h172.82c0.66 0 1.31-0.27 1.77-0.73 0.47-0.47 0.73-1.11 0.73-1.77v-201.94c0-0.661-0.26-1.31-0.73-1.775-0.46-0.465-1.11-0.73-1.77-0.73h-146.44c-0.58 0-1.14 0.199-1.59 0.566l-26.38 21.679c-0.58 0.48-0.91 1.18-0.91 1.93h2.5l1.59 1.93 25.68-21.11h143.05v196.95h-167.82v-177.77h-2.5l1.59 1.93-1.59-1.93"/></g>
  <g id="change2_2"><path fill="#001738" d="m102.66 123.39h26.17c1.37 0 2.49-1.1 2.5-2.47l0.21-21.682c0.01-1.379-1.09-2.511-2.48-2.523-1.38-0.012-2.51 1.094-2.52 2.476l-0.18 19.199h-23.7c-1.38 0-2.5 1.13-2.5 2.5 0 1.38 1.12 2.5 2.5 2.5"/></g>
  <g id="change1_2"><path fill="#ffffff" d="m149.71 145.72v180.26h172.83v-201.94h-146.45l-26.38 21.68"/></g>
  <g id="change2_3"><path fill="#001738" d="m149.71 145.72h-2.5v180.26c0 0.66 0.27 1.31 0.74 1.77 0.46 0.47 1.1 0.73 1.76 0.73h172.83c0.66 0 1.3-0.26 1.77-0.73 0.46-0.46 0.73-1.11 0.73-1.77v-201.94c0-0.66-0.27-1.3-0.73-1.77-0.47-0.47-1.11-0.73-1.77-0.73h-146.45c-0.57 0-1.14 0.2-1.58 0.57l-26.38 21.68c-0.58 0.48-0.92 1.18-0.92 1.93h2.5l1.59 1.93 25.69-21.11h143.05v196.94h-167.83v-177.76h-2.5l1.59 1.93-1.59-1.93"/></g>
  <g id="change2_4"><path fill="#001738" d="m300.82 159.55h-129.39c-1.38 0-2.5 1.12-2.5 2.5s1.12 2.5 2.5 2.5h129.39c1.39 0 2.5-1.12 2.5-2.5s-1.11-2.5-2.5-2.5"/></g>
  <g id="change2_5"><path fill="#001738" d="m300.82 178.39h-129.39c-1.38 0-2.5 1.12-2.5 2.5s1.12 2.5 2.5 2.5h129.39c1.39 0 2.5-1.12 2.5-2.5s-1.11-2.5-2.5-2.5"/></g>
  <g id="change2_6"><path fill="#001738" d="m300.82 197.24h-129.39c-1.38 0-2.5 1.12-2.5 2.5s1.12 2.5 2.5 2.5h129.39c1.39 0 2.5-1.12 2.5-2.5s-1.11-2.5-2.5-2.5"/></g>
  <g id="change2_7"><path fill="#001738" d="m300.82 216.08h-129.39c-1.38 0-2.5 1.12-2.5 2.5s1.12 2.5 2.5 2.5h129.39c1.39 0 2.5-1.12 2.5-2.5s-1.11-2.5-2.5-2.5"/></g>
  <g id="change2_8"><path fill="#001738" d="m300.82 234.93h-129.39c-1.38 0-2.5 1.11-2.5 2.5 0 1.37 1.12 2.5 2.5 2.5h129.39c1.39 0 2.5-1.13 2.5-2.5 0-1.39-1.11-2.5-2.5-2.5"/></g>
  <g id="change2_9"><path fill="#001738" d="m300.82 253.77h-129.39c-1.38 0-2.5 1.12-2.5 2.5s1.12 2.5 2.5 2.5h129.39c1.39 0 2.5-1.12 2.5-2.5s-1.11-2.5-2.5-2.5"/></g>
  <g id="change2_10"><path fill="#001738" d="m300.82 272.61h-129.39c-1.38 0-2.5 1.12-2.5 2.5s1.12 2.5 2.5 2.5h129.39c1.39 0 2.5-1.12 2.5-2.5s-1.11-2.5-2.5-2.5"/></g>
  <g id="change2_11"><path fill="#001738" d="m300.82 291.45h-129.39c-1.38 0-2.5 1.12-2.5 2.5 0 1.39 1.12 2.5 2.5 2.5h129.39c1.39 0 2.5-1.11 2.5-2.5 0-1.38-1.11-2.5-2.5-2.5"/></g>
  <g id="change2_12"><path fill="#001738" d="m149.71 148.22h26.18c1.37 0 2.48-1.1 2.5-2.48l0.2-21.68c0.02-1.38-1.09-2.51-2.47-2.52s-2.51 1.09-2.53 2.48l-0.18 19.2h-23.7c-1.38 0-2.5 1.12-2.5 2.5s1.12 2.5 2.5 2.5"/></g>
 </g>
</svg>